<svg width="40" height="32" viewBox="0 0 40 32" fill="none" xmlns="http://www.w3.org/2000/svg">
<path opacity="0.4" d="M18.8431 29.1859C22.9005 26.2389 25.4378 22.8861 27.1807 19.6478C23.7043 20.4954 18.6782 24.2042 16.582 25.9002L18.8431 29.1859Z" fill="white"/>
<path d="M7.32324 12.9879L15.4405 23.9763C17.4498 22.5054 21.863 19.6545 23.8989 18.847C27.2499 17.518 34.0594 16.8619 38.1375 17.1168C38.01 15.7405 37.5324 14.0861 34.0085 12.9879C31.1468 12.0962 26.7954 8.14507 25.0622 5.72363C22.7683 7.40583 24.4505 10.235 24.4505 11.2291C24.4505 12.0243 13.0323 12.733 7.32324 12.9879Z" fill="white"/>
<path opacity="0.4" d="M22.7068 10.3099C16.026 5.16231 5.27802 5.45773 1.59848 6.27123C2.84906 7.55818 5.27457 10.8444 6.78294 11.5281C14.0287 11.2033 19.8707 11.1534 22.7068 10.3099Z" fill="white"/>
</svg>
